# xmcd
# Track frame offsets:
# 182
# 16230
# 32727
# 51837
# 66322
# 82875
# 100395
# 119955
# 132942
# 148650
#
# Disc length: 2200 seconds
# Revision: 0
# Processed by: cddbd v1.4PL0 Copyright (c) Steve Scherf et al.
# Submitted via: VisiTrax 2.9.5.180 - For more info visit www.synapsa.com
#
DISCID=8f08960a
DTITLE=Kenny Rogers - The ultimate Kenny Rogers
DYEAR=1993
DGENRE=
TTITLE0=The gambler
TTITLE1=Lucille
TTITLE2=She believes in me
TTITLE3=Daytime friends
TTITLE4=You decorated my life
TTITLE5=Lady
TTITLE6=Coward of the count
TTITLE7=Love or something like it
TTITLE8=I don't need you
TTITLE9=Love will turn you around
EXTD=
EXTT0=
EXTT1=
EXTT2=
EXTT3=
EXTT4=
EXTT5=
EXTT6=
EXTT7=
EXTT8=
EXTT9=
PLAYORDER=
